<svg xmlns="http://www.w3.org/2000/svg" width="1024" height="1024" viewBox="0 0 1024 1024">
<g>
<path d="M 430.64 717.37 C426.44,719.36 424.53,719.37 420.01,717.41 C415.77,715.57 412.30,712.45 410.37,708.73 C409.57,707.20 405.53,697.08 401.38,686.23 C394.12,667.27 391.07,661.79 387.05,660.52 C385.74,660.10 385.53,658.72 385.83,652.66 C386.34,642.61 383.69,637.41 375.56,632.50 C374.49,631.86 373.59,629.30 373.04,625.35 C372.57,621.96 371.31,617.24 370.25,614.85 C368.07,609.95 361.34,603.37 357.51,602.41 C355.10,601.81 355.00,601.51 355.60,596.99 C357.24,584.58 347.49,573.00 335.39,573.00 C332.80,573.00 323.04,574.40 313.68,576.12 L 296.68 579.23 L 294.87 576.87 C291.18,572.04 280.91,552.10 275.64,539.50 C266.58,517.87 260.58,496.04 257.30,472.87 C254.85,455.53 254.91,418.14 257.41,401.50 C265.93,344.76 290.35,295.35 329.97,254.65 C361.82,221.94 399.54,198.90 442.00,186.24 C471.29,177.51 486.29,175.47 520.50,175.59 C550.03,175.69 565.34,177.58 587.50,183.88 C606.54,189.29 615.88,192.84 633.50,201.37 C646.41,207.63 667.45,219.80 669.00,221.91 C669.28,222.29 671.02,223.66 672.88,224.96 C674.74,226.26 677.53,228.49 679.08,229.91 C682.07,232.65 684.44,234.53 689.81,238.41 C691.62,239.72 692.65,240.95 692.09,241.15 C691.52,241.34 693.27,243.96 695.97,246.98 C698.67,249.99 700.69,252.65 700.45,252.88 C700.21,253.12 700.58,254.01 701.26,254.85 C701.94,255.69 699.58,254.10 696.00,251.32 C662.23,225.02 623.65,209.29 577.50,203.01 C565.73,201.41 530.51,201.65 517.94,203.41 C471.02,210.01 429.05,228.04 395.50,256.01 C365.88,280.72 348.11,303.33 331.06,338.02 C322.68,355.07 317.68,368.94 313.04,387.97 C308.61,406.14 308.99,408.77 314.32,396.95 C326.76,369.35 341.05,347.96 361.72,326.00 C368.36,318.94 370.24,317.49 372.81,317.46 C374.52,317.44 375.67,317.66 375.37,317.96 C375.08,318.26 374.31,318.50 373.67,318.50 C373.02,318.50 372.49,319.18 372.47,320.00 C372.45,320.83 370.05,324.88 367.13,329.00 C338.33,369.74 326.76,418.79 334.56,467.07 C336.87,481.33 341.09,487.89 351.20,492.94 C358.45,496.56 363.69,496.80 385.00,494.50 C405.88,492.24 415.66,492.50 424.82,495.57 C433.88,498.60 439.88,502.24 445.86,508.35 C448.25,510.79 450.24,512.95 450.28,513.15 C450.31,513.34 449.80,514.51 449.13,515.75 C448.02,517.84 447.23,518.01 438.21,518.08 C421.41,518.22 412.42,519.30 409.31,521.56 C407.76,522.68 405.23,526.05 403.69,529.05 C400.03,536.13 400.51,539.27 407.25,552.41 C415.98,569.42 429.07,580.11 446.53,584.49 C449.85,585.32 462.33,586.82 474.28,587.82 C499.08,589.90 498.17,589.52 504.76,600.50 C506.74,603.80 517.71,621.83 529.14,640.58 C540.57,659.32 550.39,675.89 550.96,677.39 C553.54,684.19 551.27,693.64 545.85,698.68 C538.57,705.45 524.80,704.04 518.77,695.92 C517.52,694.23 511.52,683.32 505.43,671.68 C495.67,653.00 494.07,650.50 491.94,650.50 C490.45,650.50 489.40,651.16 489.19,652.23 C489.01,653.19 493.62,663.22 499.43,674.53 C505.76,686.84 510.00,696.26 510.00,698.01 C510.00,706.52 501.91,713.13 494.08,711.02 C491.51,710.33 489.05,708.71 487.36,706.58 C485.89,704.74 478.55,691.71 471.04,677.62 C463.54,663.53 456.93,651.53 456.37,650.97 C454.96,649.56 452.00,650.84 452.00,652.86 C452.00,653.76 456.78,664.37 462.62,676.43 C468.46,688.50 473.46,700.01 473.73,702.01 C475.05,711.87 464.34,720.26 455.27,716.47 C448.02,713.44 447.96,713.33 432.60,676.00 C427.46,663.53 425.80,660.44 424.11,660.18 C422.54,659.94 422.00,660.39 422.00,661.92 C422.00,663.05 425.38,672.96 429.50,683.93 C433.62,694.91 437.00,705.29 437.00,707.00 C437.00,711.53 434.57,715.50 430.64,717.37 ZM 513.02 477.43 L 512.05 480.00 L 490.18 480.00 C469.22,480.00 468.13,479.90 463.91,477.67 C461.48,476.39 458.15,473.43 456.50,471.09 L 453.50 466.83 L 453.22 427.93 C452.98,394.83 453.16,388.60 454.44,386.11 C456.41,382.31 462.46,377.31 485.50,360.47 C495.95,352.83 510.04,342.41 516.82,337.32 C532.29,325.68 537.96,323.85 545.79,327.94 C553.43,331.93 616.51,379.66 619.75,383.90 L 623.00 388.16 L 623.00 426.63 C623.00,460.08 622.79,465.52 621.38,468.30 C619.10,472.82 616.09,475.89 611.79,478.10 C608.46,479.81 605.72,480.00 585.04,480.00 L 562.00 480.00 L 562.00 448.13 C562.00,417.41 561.93,416.18 559.93,413.63 L 557.85 411.00 L 538.10 411.00 C518.75,411.00 518.30,411.05 516.17,413.31 C514.04,415.58 514.00,416.21 514.00,445.25 C514.00,462.08 513.58,475.98 513.02,477.43 ZM 451.67 373.06 C446.09,376.46 440.71,374.94 434.86,368.28 C430.77,363.61 429.39,358.89 430.99,355.03 C432.54,351.27 439.47,344.00 441.49,344.00 C442.27,344.00 443.26,343.41 443.70,342.70 C444.14,341.98 446.74,339.84 449.48,337.95 C452.22,336.05 455.59,333.49 456.97,332.25 C458.35,331.01 460.05,330.00 460.74,330.00 C461.43,330.00 462.00,329.59 462.00,329.08 C462.00,328.58 463.69,327.13 465.75,325.86 C469.92,323.31 470.06,323.20 475.00,319.01 C476.92,317.37 479.01,316.02 479.64,316.02 C480.27,316.01 481.05,315.33 481.36,314.50 C481.68,313.67 482.63,313.00 483.47,313.00 C484.31,313.00 485.00,312.59 485.00,312.08 C485.00,311.58 486.69,310.13 488.75,308.86 C490.81,307.60 493.62,305.54 494.99,304.28 C496.36,303.03 497.84,302.00 498.28,302.00 C498.72,302.00 499.63,301.55 500.29,300.99 C500.96,300.43 503.08,298.64 505.00,297.01 C506.92,295.37 508.78,294.02 509.11,294.02 C509.45,294.01 511.25,292.66 513.11,291.02 C514.98,289.37 517.01,288.02 517.64,288.02 C518.27,288.01 519.05,287.33 519.36,286.50 C519.68,285.67 520.58,285.00 521.36,285.00 C522.15,285.00 523.05,284.33 523.36,283.50 C523.68,282.67 524.63,282.00 525.47,282.00 C526.31,282.00 527.00,281.59 527.00,281.08 C527.00,279.20 535.88,276.71 540.40,277.33 C545.17,277.99 548.27,279.87 563.50,291.41 C569.00,295.58 573.84,298.99 574.25,299.00 C574.66,299.00 575.00,296.73 575.00,293.95 C575.00,289.90 575.49,288.42 577.51,286.40 C579.90,284.01 580.54,283.90 590.26,284.07 C600.11,284.25 600.60,284.36 603.25,287.12 L 606.00 289.98 L 606.00 322.56 L 623.33 335.22 C632.86,342.18 641.23,348.57 641.93,349.42 C642.23,349.77 642.52,350.45 642.77,351.29 C642.50,350.93 641.99,350.45 641.25,349.87 C639.66,348.63 639.63,348.66 640.87,350.25 C641.63,351.21 642.41,352.00 642.62,352.00 C642.78,352.00 642.89,351.97 642.95,351.91 C643.21,352.95 643.41,354.16 643.48,355.30 C643.63,357.69 644.04,360.56 644.39,361.66 C645.27,364.44 639.05,372.44 634.89,373.89 C633.72,374.29 632.81,374.67 631.87,374.83 C627.41,375.60 622.16,371.71 585.67,344.72 C584.06,343.53 582.38,342.29 580.64,341.00 C550.18,318.48 546.22,315.44 542.02,315.05 C541.37,314.99 540.71,314.99 539.94,315.00 C539.75,315.00 539.56,315.00 539.36,315.00 C536.37,315.00 532.42,315.63 530.57,316.41 C528.72,317.18 510.92,329.81 491.02,344.47 C471.12,359.13 453.42,371.99 451.67,373.06 ZM 445.92 510.25 C447.26,511.76 448.50,513.00 448.67,513.00 C449.46,513.00 448.82,512.19 446.25,509.92 L 443.50 507.50 ZM 368.50 320.00 C367.50,321.10 366.92,322.00 367.19,322.00 C367.47,322.00 368.50,321.10 369.50,320.00 C370.50,318.90 371.08,318.00 370.81,318.00 C370.53,318.00 369.50,318.90 368.50,320.00 Z" fill="rgb(0,72,169)"/>
<path d="M 406.50 807.49 C407.29,810.78 407.61,813.75 407.21,814.09 C406.82,814.42 404.48,814.19 402.00,813.56 L 397.50 812.41 L 396.63 805.70 L 395.76 798.99 L 390.63 797.54 L 390.08 797.38 C383.20,795.43 381.08,794.83 380.21,795.62 C379.81,795.99 379.67,796.66 379.46,797.65 C377.60,806.02 376.22,807.18 370.66,805.06 C369.89,804.77 369.29,804.69 368.92,804.35 C367.88,803.39 368.71,800.41 372.98,785.02 C373.47,783.24 374.01,781.30 374.60,779.18 C377.53,768.56 380.22,758.32 380.58,756.43 C381.36,752.28 381.69,752.25 393.75,755.48 C412.19,760.42 418.03,765.93 417.98,778.32 C417.95,785.80 415.08,791.42 409.58,794.76 C404.51,797.83 404.35,798.50 406.50,807.49 ZM 193.57 627.29 C190.67,630.43 188.06,633.00 187.77,633.00 C187.28,633.00 186.04,630.12 184.60,625.68 C184.19,624.40 185.51,622.28 189.09,618.50 L 194.16 613.14 L 191.91 606.97 C190.67,603.58 189.16,600.61 188.54,600.38 C187.92,600.14 185.43,600.64 183.01,601.49 C177.77,603.35 175.92,602.23 175.66,597.06 L 175.50 593.86 L 199.33 585.93 C212.44,581.57 223.69,578.00 224.33,578.00 C226.02,578.00 233.00,599.83 233.00,605.11 C233.00,611.50 229.49,617.84 223.86,621.60 C217.31,625.98 212.91,626.49 205.17,623.79 L 198.84 621.58 ZM 208.22 492.96 C200.66,495.06 194.45,493.36 188.41,487.55 C183.01,482.36 181.58,477.35 182.51,466.86 L 183.20 459.10 L 177.99 458.40 L 172.77 457.71 L 173.27 453.31 C173.54,450.88 173.98,448.68 174.25,448.42 C175.18,447.49 224.86,456.57 226.29,457.93 C227.55,459.13 223.06,478.11 220.44,482.64 C217.40,487.90 212.97,491.64 208.22,492.96 ZM 292.52 732.38 C282.14,743.17 273.33,752.00 272.94,752.00 C271.77,752.00 271.13,744.65 270.42,723.25 C270.05,712.11 269.47,703.00 269.14,703.00 C268.80,703.00 263.56,707.96 257.48,714.02 L 246.43 725.04 L 243.08 721.58 L 239.73 718.12 L 258.11 699.07 C268.23,688.58 276.79,680.01 277.14,680.00 C278.47,680.00 278.85,683.15 279.44,699.11 C279.78,708.13 280.31,718.80 280.62,722.83 L 281.19 730.16 L 292.18 718.58 C298.23,712.21 303.47,707.01 303.84,707.03 C304.20,707.04 306.05,708.34 307.95,709.91 L 311.39 712.77 ZM 339.95 788.10 C338.86,790.24 337.63,791.95 337.23,791.90 C335.49,791.65 303.51,773.04 303.19,772.08 C303.00,771.50 304.16,768.65 305.78,765.76 C325.33,730.78 328.32,725.91 329.88,726.50 C332.93,727.65 361.97,744.15 362.53,745.05 C363.12,746.00 360.59,751.52 359.16,752.40 C358.70,752.69 352.77,749.79 346.00,745.96 C339.23,742.13 333.34,739.00 332.90,739.00 C332.47,739.00 330.54,741.80 328.61,745.21 L 325.11 751.43 L 335.56 757.26 C341.30,760.47 346.00,763.41 346.00,763.80 C345.99,764.18 345.09,765.97 344.00,767.78 L 342.00 771.05 L 338.75 769.40 C336.96,768.49 332.50,766.00 328.83,763.87 C325.15,761.74 321.73,760.00 321.21,760.00 C320.16,760.00 315.30,768.68 316.03,769.27 C316.29,769.48 321.67,772.51 328.00,775.99 C338.15,781.59 341.13,783.04 341.29,784.76 C341.35,785.45 340.96,786.18 340.40,787.23 C340.26,787.50 340.11,787.79 339.95,788.10 ZM 195.15 550.88 C181.46,558.10 169.80,564.00 169.23,564.00 C168.67,564.00 168.03,561.90 167.83,559.33 C167.48,554.96 167.66,554.54 170.73,552.73 L 174.00 550.80 L 173.46 543.65 C172.13,526.07 172.20,526.35 168.69,525.35 C165.67,524.48 165.48,524.15 165.19,519.09 C164.92,514.28 165.07,513.81 166.69,514.44 C167.69,514.82 174.12,517.15 181.00,519.62 C219.15,533.34 222.00,534.58 220.63,536.79 C220.30,537.33 208.83,543.67 195.15,550.88 ZM 232.81 669.14 C222.85,675.21 214.12,680.40 213.41,680.67 C211.51,681.40 207.66,673.52 209.28,672.21 C209.95,671.66 218.38,666.39 228.00,660.50 C237.62,654.60 245.63,649.66 245.80,649.51 C245.96,649.36 244.28,646.37 242.06,642.87 L 238.03 636.50 L 242.17 634.50 C244.84,633.21 246.45,632.89 246.69,633.59 C246.89,634.19 251.33,641.61 256.55,650.09 L 266.03 665.50 L 263.41 667.80 C261.96,669.06 260.27,669.93 259.64,669.74 C259.01,669.54 256.79,666.85 254.71,663.75 L 250.92 658.11 ZM 787.93 686.37 C786.79,687.81 785.55,688.98 785.18,688.95 C784.05,688.87 758.69,668.58 758.32,667.46 C758.13,666.89 758.60,665.56 759.38,664.50 C760.58,662.85 761.15,662.75 763.39,663.77 C765.97,664.94 766.00,664.91 766.00,660.94 C766.00,656.07 768.97,649.90 772.41,647.65 C773.97,646.63 776.99,646.00 780.32,646.00 C785.50,646.00 786.13,646.31 795.86,653.69 C801.44,657.91 805.99,661.85 805.97,662.44 C805.95,663.02 804.82,664.77 803.45,666.33 L 800.96 669.15 L 796.23 665.23 C783.12,654.36 779.02,652.89 774.45,657.45 C772.78,659.13 772.00,661.03 772.00,663.41 C772.00,667.34 773.50,669.05 783.73,676.79 C787.15,679.38 789.96,682.00 789.98,682.62 C789.99,683.23 789.07,684.92 787.93,686.37 ZM 388.10 788.42 C395.35,790.70 400.40,790.38 403.90,787.43 C410.02,782.28 409.86,773.18 403.56,768.23 C400.42,765.75 390.35,763.22 389.09,764.58 C388.05,765.71 382.70,786.03 383.28,786.62 C383.52,786.85 385.69,787.66 388.10,788.42 ZM 206.50 614.16 C210.10,616.36 212.00,616.45 216.36,614.62 C220.90,612.72 224.00,608.50 224.00,604.20 C224.00,599.85 220.99,590.00 219.66,590.00 C218.24,590.00 199.72,595.91 198.24,596.84 C197.25,597.46 197.41,598.89 198.98,603.46 C201.28,610.12 202.32,611.60 206.50,614.16 ZM 197.20 482.38 C201.70,484.67 207.46,483.89 210.99,480.51 C213.87,477.75 217.61,467.21 216.21,465.81 C215.78,465.38 210.29,464.16 203.99,463.08 C195.31,461.60 192.35,461.42 191.78,462.32 C190.48,464.36 190.93,474.97 192.45,477.90 C193.24,479.44 195.38,481.46 197.20,482.38 ZM 771.06 705.91 C769.85,707.61 768.33,708.97 767.68,708.94 C767.03,708.91 760.74,703.67 753.70,697.30 L 740.90 685.71 L 743.64 682.85 C745.14,681.28 746.72,680.00 747.15,680.00 C747.76,680.00 761.32,691.82 771.88,701.56 C773.04,702.63 772.91,703.31 771.06,705.91 ZM 181.64 542.36 C181.99,544.91 182.38,547.00 182.50,547.00 C184.20,547.00 201.95,537.56 201.34,536.99 C200.43,536.12 183.42,530.00 181.92,530.00 C180.85,530.00 180.72,535.69 181.64,542.36 ZM 691.85 240.21 C696.41,244.00 700.50,247.91 706.08,253.65 C717.00,264.88 727.60,277.00 726.50,277.00 C726.10,277.00 721.43,273.04 716.13,268.19 C710.28,262.84 704.41,257.85 698.47,253.19 C700.58,254.75 701.77,255.48 701.26,254.85 C700.58,254.01 700.21,253.12 700.45,252.88 C700.69,252.65 698.67,249.99 695.97,246.98 C693.27,243.96 691.52,241.34 692.09,241.15 C692.37,241.05 692.26,240.70 691.85,240.21 ZM 739.17 679.35 C736.78,681.51 735.43,681.43 733.00,679.00 C730.38,676.38 730.46,673.49 733.22,671.56 C736.03,669.59 737.45,669.59 739.43,671.57 C741.54,673.68 741.42,677.31 739.17,679.35 ZM 369.60 318.52 C372.38,315.94 375.23,313.42 378.16,310.94 C384.76,305.38 390.31,300.98 390.49,301.17 C390.66,301.35 388.08,304.42 384.76,308.00 C375.10,318.37 367.91,327.36 361.65,337.18 C363.41,334.42 365.23,331.69 367.13,329.00 C370.05,324.88 372.45,320.83 372.47,320.00 C372.49,319.18 373.02,318.50 373.67,318.50 C374.31,318.50 375.08,318.26 375.37,317.96 C375.67,317.66 374.52,317.44 372.81,317.46 C371.75,317.47 370.81,317.73 369.60,318.52 ZM 642.08 349.63 C642.51,350.00 642.82,350.28 643.00,350.48 C646.69,354.44 646.49,361.24 642.53,366.96 C640.33,370.13 638.48,372.06 636.26,373.23 C640.28,370.81 645.18,364.14 644.39,361.66 C644.04,360.56 643.63,357.69 643.48,355.30 C643.41,354.16 643.21,352.95 642.95,351.91 C642.89,351.97 642.78,352.00 642.62,352.00 C642.41,352.00 641.63,351.21 640.87,350.25 C639.63,348.66 639.66,348.63 641.25,349.87 C641.99,350.45 642.50,350.93 642.77,351.29 C642.56,350.59 642.33,350.01 642.08,349.63 ZM 449.81 512.55 C451.71,514.63 453.00,516.32 453.00,516.93 C453.00,517.63 448.77,518.03 440.75,518.08 C430.03,518.15 422.50,518.49 417.37,519.19 C422.20,518.51 429.04,518.15 438.21,518.08 C447.23,518.01 448.02,517.84 449.13,515.75 C449.80,514.51 450.31,513.34 450.28,513.15 C450.27,513.09 450.10,512.88 449.81,512.55 ZM 445.92 510.25 L 443.50 507.50 L 446.25 509.92 C448.82,512.19 449.46,513.00 448.67,513.00 C448.50,513.00 447.26,511.76 445.92,510.25 ZM 368.50 320.00 C369.50,318.90 370.53,318.00 370.81,318.00 C371.08,318.00 370.50,318.90 369.50,320.00 C368.50,321.10 367.47,322.00 367.19,322.00 C366.92,322.00 367.50,321.10 368.50,320.00 ZM 359.14 341.25 C356.29,346.00 353.61,351.01 350.92,356.50 C334.26,390.55 328.49,429.54 334.56,467.07 C327.52,423.53 336.24,379.37 359.14,341.25 ZM 692.96 248.99 C678.20,238.01 663.01,229.08 646.93,221.99 C663.29,229.16 678.56,238.13 692.96,248.99 ZM 629.77 374.81 C627.33,374.76 624.13,372.93 608.72,361.70 C621.68,371.11 626.63,374.23 629.77,374.81 ZM 331.17 365.18 C338.49,353.43 346.59,342.66 355.62,332.68 C346.26,343.23 338.28,353.81 331.17,365.18 ZM 433.34 499.06 C434.86,499.78 436.19,500.49 437.11,501.08 C437.73,501.48 438.44,502.00 439.22,502.60 C437.37,501.28 435.44,500.12 433.34,499.06 ZM 687.65 236.83 C683.74,233.96 681.64,232.25 679.08,229.91 C680.64,231.33 682.94,233.27 684.20,234.21 C685.41,235.12 686.56,235.99 687.65,236.83 Z" fill="rgb(3,47,100)"/>
<path d="M 594.19 689.57 C581.51,693.42 574.33,693.94 571.17,691.25 C569.32,689.67 562.38,678.51 521.64,611.56 C508.12,589.35 502.67,582.76 496.42,581.10 C494.17,580.50 485.39,579.56 476.92,579.01 C458.01,577.77 454.00,577.28 447.00,575.32 C438.10,572.82 430.38,568.16 424.18,561.53 C418.01,554.93 410.00,540.86 410.00,536.61 C410.00,535.17 411.29,532.59 412.92,530.77 L 415.84 527.50 L 532.50 527.50 L 537.26 529.84 C542.27,532.31 545.68,535.99 555.50,549.56 C575.48,577.15 580.42,582.43 590.83,587.30 C596.04,589.74 599.13,590.47 605.68,590.81 C620.25,591.58 629.93,587.70 642.42,576.09 C660.99,558.85 673.38,542.59 684.05,521.50 C691.10,507.57 700.00,482.55 700.00,476.69 C700.00,474.73 700.38,472.88 700.84,472.60 C701.30,472.31 702.27,477.88 703.00,484.96 C706.54,519.75 700.04,556.98 684.77,589.26 C681.97,595.17 679.96,600.30 680.31,600.64 C681.31,601.64 694.92,593.41 706.16,585.03 C736.60,562.30 761.28,528.62 773.57,493.00 C777.88,480.52 777.83,483.22 773.45,500.51 C769.21,517.23 765.22,529.16 759.57,542.04 C728.34,613.17 667.73,667.24 594.19,689.57 ZM 335.83 640.41 C311.95,644.77 308.74,644.87 303.64,641.40 C292.94,634.13 295.84,618.41 308.50,615.15 C310.70,614.58 321.09,612.52 331.58,610.58 C352.25,606.75 355.03,606.81 359.76,611.23 C367.15,618.14 366.71,628.33 358.75,634.36 C356.12,636.35 351.73,637.51 335.83,640.41 ZM 357.24 670.02 C351.33,671.10 342.90,672.24 338.50,672.56 C331.53,673.07 330.08,672.87 327.24,671.08 C317.80,665.11 317.68,652.73 327.00,645.83 C329.96,643.64 354.51,639.00 363.12,639.00 C369.68,639.00 373.57,641.46 376.38,647.39 C378.57,652.01 378.42,655.44 375.78,660.73 C372.97,666.36 370.48,667.61 357.24,670.02 ZM 321.53 609.99 C320.99,610.07 320.47,610.14 319.97,610.22 C308.69,611.84 306.01,612.22 303.70,611.47 C302.88,611.21 302.10,610.80 301.00,610.25 C297.17,608.34 293.00,601.43 293.00,597.00 C293.00,592.49 297.17,585.66 301.09,583.74 C303.06,582.78 311.99,580.85 320.94,579.45 C339.46,576.55 341.90,576.84 346.90,582.54 C352.28,588.66 352.20,596.14 346.69,602.46 C343.02,606.68 341.58,607.11 321.53,609.99 ZM 373.73 699.89 C357.89,702.34 357.48,702.35 353.45,700.59 C347.26,697.90 342.82,689.67 344.37,683.76 C345.51,679.40 349.08,674.87 352.50,673.44 C354.40,672.64 361.99,671.01 369.37,669.80 C385.80,667.12 389.36,667.76 394.03,674.20 C398.96,681.01 397.78,689.43 391.14,694.77 C387.83,697.43 385.77,698.03 373.73,699.89 ZM 554.31 825.98 C552.73,826.26 551.29,826.51 549.98,826.74 C538.06,828.84 536.21,829.17 535.79,828.53 C535.66,828.35 535.66,828.08 535.56,827.75 C534.59,824.57 527.02,776.65 527.42,776.25 C527.97,775.69 566.38,769.11 566.80,769.49 C566.96,769.64 567.19,771.73 567.30,774.13 L 567.50 778.50 L 554.00 780.83 C546.58,782.12 540.01,783.32 539.40,783.49 C538.60,783.73 538.61,785.70 539.44,790.66 C539.97,793.88 540.11,795.73 541.11,796.64 C542.41,797.83 545.18,797.42 552.22,796.36 C553.03,796.24 553.89,796.11 554.82,795.97 C562.91,794.78 564.25,794.79 565.05,796.05 C566.63,798.54 566.16,802.82 564.25,803.39 C562.31,803.96 545.01,806.99 543.62,807.00 C542.77,807.00 543.26,816.59 544.16,817.49 C544.41,817.74 551.29,816.81 559.46,815.42 C575.79,812.66 575.96,812.69 575.98,818.73 C575.99,819.03 576.00,819.30 576.01,819.55 C576.04,820.11 576.07,820.55 575.92,820.93 C575.32,822.47 571.87,822.90 554.31,825.98 ZM 662.55 788.84 C662.06,789.13 661.62,789.40 661.23,789.65 C659.86,790.50 658.94,791.07 658.24,790.87 C656.60,790.41 656.14,785.72 653.92,770.50 C650.69,748.49 649.17,733.58 650.04,732.63 C650.48,732.15 652.65,732.82 654.88,734.13 C662.17,738.40 700.00,764.15 699.99,764.84 C699.97,765.67 693.36,770.00 692.10,770.00 C691.58,770.00 689.89,769.27 688.33,768.39 C685.53,766.79 685.39,766.84 675.27,773.11 L 665.05 779.45 L 665.63 783.07 C666.16,786.41 665.93,786.84 662.55,788.84 ZM 601.85 814.90 C601.37,815.07 600.93,815.24 600.53,815.40 C599.52,815.80 598.75,816.11 598.04,816.00 C595.58,815.63 593.88,810.27 585.04,786.70 C581.17,776.36 578.00,767.53 578.00,767.07 C578.00,766.33 580.48,765.14 585.13,763.67 C586.43,763.26 587.73,765.68 591.52,775.60 C594.14,782.45 596.55,788.21 596.89,788.41 C597.39,788.70 620.86,780.32 621.78,779.52 C621.93,779.39 619.79,773.50 617.02,766.45 C614.25,759.39 612.32,753.30 612.74,752.90 C613.16,752.51 615.22,751.72 617.31,751.16 L 621.13 750.13 L 623.06 754.65 C624.13,757.13 625.00,759.33 625.00,759.54 C625.00,759.75 628.38,768.74 632.52,779.52 C636.66,790.30 639.80,799.51 639.51,799.99 C638.73,801.25 632.20,803.24 631.10,802.56 C630.58,802.24 629.19,799.06 628.00,795.50 C626.81,791.94 625.47,788.79 625.01,788.51 C624.12,787.96 602.11,795.67 600.62,797.05 C600.12,797.51 600.87,800.71 602.37,804.44 C605.71,812.80 605.67,813.57 601.85,814.90 ZM 501.97 830.91 C496.21,832.15 494.98,832.15 489.72,830.91 C484.71,829.73 481.01,827.74 478.16,824.69 C475.62,821.97 475.99,820.13 479.78,816.70 C481.68,814.98 481.86,815.01 484.74,817.43 C493.16,824.52 505.00,823.24 505.00,815.24 C505.00,811.99 503.35,810.79 494.10,807.32 C481.30,802.51 478.00,799.05 478.00,790.43 C478.00,786.36 478.49,785.28 481.79,781.98 C488.31,775.45 498.51,774.37 507.37,779.26 C512.30,781.98 512.76,783.58 509.71,787.37 L 507.40 790.24 L 503.24 788.12 C495.56,784.20 488.00,786.03 488.00,791.81 C488.00,794.48 490.19,795.92 501.24,800.54 C513.81,805.79 517.55,810.89 515.02,819.33 C513.30,825.08 508.24,829.57 501.97,830.91 ZM 726.66 742.85 C724.87,744.58 723.14,746.00 722.82,746.00 C722.50,746.00 718.16,741.39 713.17,735.75 C708.18,730.11 701.42,722.58 698.13,719.00 L 692.17 712.50 L 687.30 717.25 C684.62,719.86 682.07,722.00 681.63,722.00 C680.50,722.00 677.07,717.75 677.03,716.31 C677.01,715.65 683.35,709.42 691.11,702.47 L 705.22 689.83 L 708.03 692.53 C709.58,694.02 710.63,695.81 710.36,696.52 C710.08,697.22 707.63,699.69 704.89,701.99 L 699.92 706.18 L 708.22 715.34 C712.78,720.38 719.53,727.92 723.21,732.10 L 729.91 739.70 ZM 661.68 760.35 C662.63,766.21 663.70,771.00 664.08,771.00 C664.45,771.00 665.36,770.27 666.09,769.39 C666.83,768.50 669.81,766.43 672.72,764.79 C675.62,763.15 678.00,761.48 678.00,761.08 C678.00,760.10 661.03,748.63 660.44,749.22 C660.18,749.48 660.74,754.49 661.68,760.35 Z" fill="rgb(182,109,237)"/>
<path d="M 0.00 512.00 L 0.00 0.00 L 512.00 0.00 L 1024.00 0.00 L 1024.00 512.00 L 1024.00 1024.00 L 512.00 1024.00 L 0.00 1024.00 L 0.00 512.00 ZM 501.97 830.91 C508.24,829.57 513.30,825.08 515.02,819.33 C517.55,810.89 513.81,805.79 501.24,800.54 C490.19,795.92 488.00,794.48 488.00,791.81 C488.00,786.03 495.56,784.20 503.24,788.12 L 507.40 790.24 L 509.71 787.37 C512.76,783.58 512.30,781.98 507.37,779.26 C498.51,774.37 488.31,775.45 481.79,781.98 C478.49,785.28 478.00,786.36 478.00,790.43 C478.00,799.05 481.30,802.51 494.10,807.32 C503.35,810.79 505.00,811.99 505.00,815.24 C505.00,823.24 493.16,824.52 484.74,817.43 C481.86,815.01 481.68,814.98 479.78,816.70 C475.99,820.13 475.62,821.97 478.16,824.69 C481.01,827.74 484.71,829.73 489.72,830.91 C494.98,832.15 496.21,832.15 501.97,830.91 ZM 554.31 825.98 C578.04,821.81 576.00,822.49 575.98,818.73 C575.96,812.69 575.79,812.66 559.46,815.42 C551.29,816.81 544.41,817.74 544.16,817.49 C543.26,816.59 542.77,807.00 543.62,807.00 C545.01,806.99 562.31,803.96 564.25,803.39 C566.16,802.82 566.63,798.54 565.05,796.05 C564.25,794.79 562.91,794.78 554.82,795.97 C539.68,798.21 540.75,798.58 539.44,790.66 C538.61,785.70 538.60,783.73 539.40,783.49 C540.01,783.32 546.58,782.12 554.00,780.83 L 567.50 778.50 L 567.30 774.13 C567.19,771.73 566.96,769.64 566.80,769.49 C566.38,769.11 527.97,775.69 527.42,776.25 C527.02,776.65 534.59,824.57 535.56,827.75 C536.04,829.33 534.30,829.49 554.31,825.98 ZM 601.85 814.90 C605.67,813.57 605.71,812.80 602.37,804.44 C600.87,800.71 600.12,797.51 600.62,797.05 C602.11,795.67 624.12,787.96 625.01,788.51 C625.47,788.79 626.81,791.94 628.00,795.50 C629.19,799.06 630.58,802.24 631.10,802.56 C632.20,803.24 638.73,801.25 639.51,799.99 C639.80,799.51 636.66,790.30 632.52,779.52 C628.38,768.74 625.00,759.75 625.00,759.54 C625.00,759.33 624.13,757.13 623.06,754.65 L 621.13 750.13 L 617.31 751.16 C615.22,751.72 613.16,752.51 612.74,752.90 C612.32,753.30 614.25,759.39 617.02,766.45 C619.79,773.50 621.93,779.39 621.78,779.52 C620.86,780.32 597.39,788.70 596.89,788.41 C596.55,788.21 594.14,782.45 591.52,775.60 C587.73,765.68 586.43,763.26 585.13,763.67 C580.48,765.14 578.00,766.33 578.00,767.07 C578.00,767.53 581.17,776.36 585.04,786.70 C597.40,819.68 595.81,817.01 601.85,814.90 ZM 406.50 807.49 C404.35,798.50 404.51,797.83 409.58,794.76 C415.08,791.42 417.95,785.80 417.98,778.32 C418.03,765.93 412.19,760.42 393.75,755.48 C381.69,752.25 381.36,752.28 380.58,756.43 C380.22,758.32 377.53,768.56 374.60,779.18 C367.12,806.24 367.48,803.85 370.66,805.06 C376.22,807.18 377.60,806.02 379.46,797.65 C380.15,794.51 379.95,794.51 390.63,797.54 L 395.76 798.99 L 396.63 805.70 L 397.50 812.41 L 402.00 813.56 C404.48,814.19 406.82,814.42 407.21,814.09 C407.61,813.75 407.29,810.78 406.50,807.49 ZM 339.95 788.10 C342.32,783.46 343.24,784.40 328.00,775.99 C321.67,772.51 316.29,769.48 316.03,769.27 C315.30,768.68 320.16,760.00 321.21,760.00 C321.73,760.00 325.15,761.74 328.83,763.87 C332.50,766.00 336.96,768.49 338.75,769.40 L 342.00 771.05 L 344.00 767.78 C345.09,765.97 345.99,764.18 346.00,763.80 C346.00,763.41 341.30,760.47 335.56,757.26 L 325.11 751.43 L 328.61 745.21 C330.54,741.80 332.47,739.00 332.90,739.00 C333.34,739.00 339.23,742.13 346.00,745.96 C352.77,749.79 358.70,752.69 359.16,752.40 C360.59,751.52 363.12,746.00 362.53,745.05 C361.97,744.15 332.93,727.65 329.88,726.50 C328.32,725.91 325.33,730.78 305.78,765.76 C304.16,768.65 303.00,771.50 303.19,772.08 C303.51,773.04 335.49,791.65 337.23,791.90 C337.63,791.95 338.86,790.24 339.95,788.10 ZM 662.55 788.84 C665.93,786.84 666.16,786.41 665.63,783.07 L 665.05 779.45 L 675.27 773.11 C685.39,766.84 685.53,766.79 688.33,768.39 C689.89,769.27 691.58,770.00 692.10,770.00 C693.36,770.00 699.97,765.67 699.99,764.84 C700.00,764.15 662.17,738.40 654.88,734.13 C652.65,732.82 650.48,732.15 650.04,732.63 C649.17,733.58 650.69,748.49 653.92,770.50 C657.37,794.12 656.55,792.38 662.55,788.84 ZM 292.52 732.38 L 311.39 712.77 L 307.95 709.91 C306.05,708.34 304.20,707.04 303.84,707.03 C303.47,707.01 298.23,712.21 292.18,718.58 L 281.19 730.16 L 280.62 722.83 C280.31,718.80 279.78,708.13 279.44,699.11 C278.85,683.15 278.47,680.00 277.14,680.00 C276.79,680.01 268.23,688.58 258.11,699.07 L 239.73 718.12 L 243.08 721.58 L 246.43 725.04 L 257.48 714.02 C263.56,707.96 268.80,703.00 269.14,703.00 C269.47,703.00 270.05,712.11 270.42,723.25 C271.13,744.65 271.77,752.00 272.94,752.00 C273.33,752.00 282.14,743.17 292.52,732.38 ZM 726.66 742.85 L 729.91 739.70 L 723.21 732.10 C719.53,727.92 712.78,720.38 708.22,715.34 L 699.92 706.18 L 704.89 701.99 C707.63,699.69 710.08,697.22 710.36,696.52 C710.63,695.81 709.58,694.02 708.03,692.53 L 705.22 689.83 L 691.11 702.47 C683.35,709.42 677.01,715.65 677.03,716.31 C677.07,717.75 680.50,722.00 681.63,722.00 C682.07,722.00 684.62,719.86 687.30,717.25 L 692.17 712.50 L 698.13 719.00 C701.42,722.58 708.18,730.11 713.17,735.75 C718.16,741.39 722.50,746.00 722.82,746.00 C723.14,746.00 724.87,744.58 726.66,742.85 ZM 430.64 717.37 C434.57,715.50 437.00,711.53 437.00,707.00 C437.00,705.29 433.62,694.91 429.50,683.93 C425.38,672.96 422.00,663.05 422.00,661.92 C422.00,660.39 422.54,659.94 424.11,660.18 C425.80,660.44 427.46,663.53 432.60,676.00 C447.96,713.33 448.02,713.44 455.27,716.47 C464.34,720.26 475.05,711.87 473.73,702.01 C473.46,700.01 468.46,688.50 462.62,676.43 C456.78,664.37 452.00,653.76 452.00,652.86 C452.00,650.84 454.96,649.56 456.37,650.97 C456.93,651.53 463.54,663.53 471.04,677.62 C478.55,691.71 485.89,704.74 487.36,706.58 C489.05,708.71 491.51,710.33 494.08,711.02 C501.91,713.13 510.00,706.52 510.00,698.01 C510.00,696.26 505.76,686.84 499.43,674.53 C493.62,663.22 489.01,653.19 489.19,652.23 C489.40,651.16 490.45,650.50 491.94,650.50 C494.07,650.50 495.67,653.00 505.43,671.68 C511.52,683.32 517.52,694.23 518.77,695.92 C524.80,704.04 538.57,705.45 545.85,698.68 C551.27,693.64 553.54,684.19 550.96,677.39 C550.39,675.89 540.57,659.32 529.14,640.58 C517.71,621.83 506.74,603.80 504.76,600.50 C498.17,589.52 499.08,589.90 474.28,587.82 C462.33,586.82 449.85,585.32 446.53,584.49 C429.07,580.11 415.98,569.42 407.25,552.41 C400.51,539.27 400.03,536.13 403.69,529.05 C405.23,526.05 407.76,522.68 409.31,521.56 C412.56,519.20 421.55,518.20 440.75,518.08 C448.77,518.03 453.00,517.63 453.00,516.93 C453.00,515.15 442.07,504.25 437.11,501.08 C434.58,499.46 429.05,496.98 424.82,495.57 C415.66,492.50 405.88,492.24 385.00,494.50 C363.69,496.80 358.45,496.56 351.20,492.94 C341.09,487.89 336.87,481.33 334.56,467.07 C328.49,429.54 334.26,390.55 350.92,356.50 C360.08,337.79 369.22,324.68 384.76,308.00 C388.08,304.42 390.66,301.35 390.49,301.17 C390.31,300.98 384.76,305.38 378.16,310.94 C350.70,334.09 330.23,361.67 314.32,396.95 C308.99,408.77 308.61,406.14 313.04,387.97 C317.68,368.94 322.68,355.07 331.06,338.02 C348.11,303.33 365.88,280.72 395.50,256.01 C429.05,228.04 471.02,210.01 517.94,203.41 C530.51,201.65 565.73,201.41 577.50,203.01 C632.29,210.46 674.96,230.52 716.13,268.19 C721.43,273.04 726.10,277.00 726.50,277.00 C727.60,277.00 717.00,264.88 706.08,253.65 C697.64,244.96 692.60,240.49 684.20,234.21 C682.94,233.27 680.64,231.33 679.08,229.91 C677.53,228.49 674.74,226.26 672.88,224.96 C671.02,223.66 669.28,222.29 669.00,221.91 C667.45,219.80 646.41,207.63 633.50,201.37 C615.88,192.84 606.54,189.29 587.50,183.88 C565.34,177.58 550.03,175.69 520.50,175.59 C486.29,175.47 471.29,177.51 442.00,186.24 C399.54,198.90 361.82,221.94 329.97,254.65 C290.35,295.35 265.93,344.76 257.41,401.50 C254.91,418.14 254.85,455.53 257.30,472.87 C260.58,496.04 266.58,517.87 275.64,539.50 C280.91,552.10 291.18,572.04 294.87,576.87 L 296.68 579.23 L 313.68 576.12 C323.04,574.40 332.80,573.00 335.39,573.00 C347.49,573.00 357.24,584.58 355.60,596.99 C355.00,601.51 355.10,601.81 357.51,602.41 C361.34,603.37 368.07,609.95 370.25,614.85 C371.31,617.24 372.57,621.96 373.04,625.35 C373.59,629.30 374.49,631.86 375.56,632.50 C383.69,637.41 386.34,642.61 385.83,652.66 C385.53,658.72 385.74,660.10 387.05,660.52 C391.07,661.79 394.12,667.27 401.38,686.23 C405.53,697.08 409.57,707.20 410.37,708.73 C412.30,712.45 415.77,715.57 420.01,717.41 C424.53,719.37 426.44,719.36 430.64,717.37 ZM 771.06 705.91 C772.91,703.31 773.04,702.63 771.88,701.56 C761.32,691.82 747.76,680.00 747.15,680.00 C746.72,680.00 745.14,681.28 743.64,682.85 L 740.90 685.71 L 753.70 697.30 C760.74,703.67 767.03,708.91 767.68,708.94 C768.33,708.97 769.85,707.61 771.06,705.91 ZM 373.73 699.89 C385.77,698.03 387.83,697.43 391.14,694.77 C397.78,689.43 398.96,681.01 394.03,674.20 C389.36,667.76 385.80,667.12 369.37,669.80 C361.99,671.01 354.40,672.64 352.50,673.44 C349.08,674.87 345.51,679.40 344.37,683.76 C342.82,689.67 347.26,697.90 353.45,700.59 C357.48,702.35 357.89,702.34 373.73,699.89 ZM 594.19 689.57 C667.73,667.24 728.34,613.17 759.57,542.04 C765.22,529.16 769.21,517.23 773.45,500.51 C777.83,483.22 777.88,480.52 773.57,493.00 C761.28,528.62 736.60,562.30 706.16,585.03 C694.92,593.41 681.31,601.64 680.31,600.64 C679.96,600.30 681.97,595.17 684.77,589.26 C700.04,556.98 706.54,519.75 703.00,484.96 C702.27,477.88 701.30,472.31 700.84,472.60 C700.38,472.88 700.00,474.73 700.00,476.69 C700.00,482.55 691.10,507.57 684.05,521.50 C673.38,542.59 660.99,558.85 642.42,576.09 C629.93,587.70 620.25,591.58 605.68,590.81 C599.13,590.47 596.04,589.74 590.83,587.30 C580.42,582.43 575.48,577.15 555.50,549.56 C545.68,535.99 542.27,532.31 537.26,529.84 L 532.50 527.50 L 474.17 527.50 L 415.84 527.50 L 412.92 530.77 C411.29,532.59 410.00,535.17 410.00,536.61 C410.00,540.86 418.01,554.93 424.18,561.53 C430.38,568.16 438.10,572.82 447.00,575.32 C454.00,577.28 458.01,577.77 476.92,579.01 C485.39,579.56 494.17,580.50 496.42,581.10 C502.67,582.76 508.12,589.35 521.64,611.56 C562.38,678.51 569.32,689.67 571.17,691.25 C574.33,693.94 581.51,693.42 594.19,689.57 ZM 787.93 686.37 C789.07,684.92 789.99,683.23 789.98,682.62 C789.96,682.00 787.15,679.38 783.73,676.79 C773.50,669.05 772.00,667.34 772.00,663.41 C772.00,661.03 772.78,659.13 774.45,657.45 C779.02,652.89 783.12,654.36 796.23,665.23 L 800.96 669.15 L 803.45 666.33 C804.82,664.77 805.95,663.02 805.97,662.44 C805.99,661.85 801.44,657.91 795.86,653.69 C786.13,646.31 785.50,646.00 780.32,646.00 C776.99,646.00 773.97,646.63 772.41,647.65 C768.97,649.90 766.00,656.07 766.00,660.94 C766.00,664.91 765.97,664.94 763.39,663.77 C761.15,662.75 760.58,662.85 759.38,664.50 C758.60,665.56 758.13,666.89 758.32,667.46 C758.69,668.58 784.05,688.87 785.18,688.95 C785.55,688.98 786.79,687.81 787.93,686.37 ZM 232.81 669.14 L 250.92 658.11 L 254.71 663.75 C256.79,666.85 259.01,669.54 259.64,669.74 C260.27,669.93 261.96,669.06 263.41,667.80 L 266.03 665.50 L 256.55 650.09 C251.33,641.61 246.89,634.19 246.69,633.59 C246.45,632.89 244.84,633.21 242.17,634.50 L 238.03 636.50 L 242.06 642.87 C244.28,646.37 245.96,649.36 245.80,649.51 C245.63,649.66 237.62,654.60 228.00,660.50 C218.38,666.39 209.95,671.66 209.28,672.21 C207.66,673.52 211.51,681.40 213.41,680.67 C214.12,680.40 222.85,675.21 232.81,669.14 ZM 739.17 679.35 C741.42,677.31 741.54,673.68 739.43,671.57 C737.45,669.59 736.03,669.59 733.22,671.56 C730.46,673.49 730.38,676.38 733.00,679.00 C735.43,681.43 736.78,681.51 739.17,679.35 ZM 357.24 670.02 C370.48,667.61 372.97,666.36 375.78,660.73 C378.42,655.44 378.57,652.01 376.38,647.39 C373.57,641.46 369.68,639.00 363.12,639.00 C354.51,639.00 329.96,643.64 327.00,645.83 C317.68,652.73 317.80,665.11 327.24,671.08 C330.08,672.87 331.53,673.07 338.50,672.56 C342.90,672.24 351.33,671.10 357.24,670.02 ZM 335.83 640.41 C351.73,637.51 356.12,636.35 358.75,634.36 C366.71,628.33 367.15,618.14 359.76,611.23 C355.03,606.81 352.25,606.75 331.58,610.58 C321.09,612.52 310.70,614.58 308.50,615.15 C295.84,618.41 292.94,634.13 303.64,641.40 C308.74,644.87 311.95,644.77 335.83,640.41 ZM 193.57 627.29 L 198.84 621.58 L 205.17 623.79 C212.91,626.49 217.31,625.98 223.86,621.60 C229.49,617.84 233.00,611.50 233.00,605.11 C233.00,599.83 226.02,578.00 224.33,578.00 C223.69,578.00 212.44,581.57 199.33,585.93 L 175.50 593.86 L 175.66 597.06 C175.92,602.23 177.77,603.35 183.01,601.49 C185.43,600.64 187.92,600.14 188.54,600.38 C189.16,600.61 190.67,603.58 191.91,606.97 L 194.16 613.14 L 189.09 618.50 C185.51,622.28 184.19,624.40 184.60,625.68 C186.04,630.12 187.28,633.00 187.77,633.00 C188.06,633.00 190.67,630.43 193.57,627.29 ZM 321.53 609.99 C341.58,607.11 343.02,606.68 346.69,602.46 C352.20,596.14 352.28,588.66 346.90,582.54 C341.90,576.84 339.46,576.55 320.94,579.45 C311.99,580.85 303.06,582.78 301.09,583.74 C297.17,585.66 293.00,592.49 293.00,597.00 C293.00,601.43 297.17,608.34 301.00,610.25 C305.33,612.41 304.64,612.42 321.53,609.99 ZM 195.15 550.88 C208.83,543.67 220.30,537.33 220.63,536.79 C222.00,534.58 219.15,533.34 181.00,519.62 C174.12,517.15 167.69,514.82 166.69,514.44 C165.07,513.81 164.92,514.28 165.19,519.09 C165.48,524.15 165.67,524.48 168.69,525.35 C172.20,526.35 172.13,526.07 173.46,543.65 L 174.00 550.80 L 170.73 552.73 C167.66,554.54 167.48,554.96 167.83,559.33 C168.03,561.90 168.67,564.00 169.23,564.00 C169.80,564.00 181.46,558.10 195.15,550.88 ZM 208.22 492.96 C212.97,491.64 217.40,487.90 220.44,482.64 C223.06,478.11 227.55,459.13 226.29,457.93 C224.86,456.57 175.18,447.49 174.25,448.42 C173.98,448.68 173.54,450.88 173.27,453.31 L 172.77 457.71 L 177.99 458.40 L 183.20 459.10 L 182.51 466.86 C181.58,477.35 183.01,482.36 188.41,487.55 C194.45,493.36 200.66,495.06 208.22,492.96 ZM 513.02 477.43 C513.58,475.98 514.00,462.08 514.00,445.25 C514.00,416.21 514.04,415.58 516.17,413.31 C518.30,411.05 518.75,411.00 538.10,411.00 L 557.85 411.00 L 559.93 413.63 C561.93,416.18 562.00,417.41 562.00,448.13 L 562.00 480.00 L 585.04 480.00 C605.72,480.00 608.46,479.81 611.79,478.10 C616.09,475.89 619.10,472.82 621.38,468.30 C622.79,465.52 623.00,460.08 623.00,426.63 L 623.00 388.16 L 619.75 383.90 C616.51,379.66 553.43,331.93 545.79,327.94 C537.96,323.85 532.29,325.68 516.82,337.32 C510.04,342.41 495.95,352.83 485.50,360.47 C462.46,377.31 456.41,382.31 454.44,386.11 C453.16,388.60 452.98,394.83 453.22,427.93 L 453.50 466.83 L 456.50 471.09 C458.15,473.43 461.48,476.39 463.91,477.67 C468.13,479.90 469.22,480.00 490.18,480.00 L 512.05 480.00 L 513.02 477.43 ZM 451.67 373.06 C453.42,371.99 471.12,359.13 491.02,344.47 C510.92,329.81 528.72,317.18 530.57,316.41 C532.42,315.63 536.37,315.00 539.36,315.00 C545.69,315.00 544.27,314.11 580.64,341.00 C626.95,375.24 626.98,375.27 631.27,374.69 C636.23,374.02 638.90,372.19 642.53,366.96 C646.49,361.24 646.69,354.44 643.00,350.48 C641.62,349.00 632.74,342.12 623.25,335.18 L 606.00 322.56 L 606.00 306.27 L 606.00 289.98 L 603.25 287.12 C600.60,284.36 600.11,284.25 590.26,284.07 C580.54,283.90 579.90,284.01 577.51,286.40 C575.49,288.42 575.00,289.90 575.00,293.95 C575.00,296.73 574.66,299.00 574.25,299.00 C573.84,298.99 569.00,295.58 563.50,291.41 C548.27,279.87 545.17,277.99 540.40,277.33 C535.88,276.71 527.00,279.20 527.00,281.08 C527.00,281.59 526.31,282.00 525.47,282.00 C524.63,282.00 523.68,282.67 523.36,283.50 C523.05,284.33 522.15,285.00 521.36,285.00 C520.58,285.00 519.68,285.67 519.36,286.50 C519.05,287.33 518.27,288.01 517.64,288.02 C517.01,288.02 514.98,289.37 513.11,291.02 C511.25,292.66 509.45,294.01 509.11,294.02 C508.78,294.02 506.92,295.37 505.00,297.01 C503.08,298.64 500.96,300.43 500.29,300.99 C499.63,301.55 498.72,302.00 498.28,302.00 C497.84,302.00 496.36,303.03 494.99,304.28 C493.62,305.54 490.81,307.60 488.75,308.86 C486.69,310.13 485.00,311.58 485.00,312.08 C485.00,312.59 484.31,313.00 483.47,313.00 C482.63,313.00 481.68,313.67 481.36,314.50 C481.05,315.33 480.27,316.01 479.64,316.02 C479.01,316.02 476.92,317.37 475.00,319.01 C470.06,323.20 469.92,323.31 465.75,325.86 C463.69,327.13 462.00,328.58 462.00,329.08 C462.00,329.59 461.43,330.00 460.74,330.00 C460.05,330.00 458.35,331.01 456.97,332.25 C455.59,333.49 452.22,336.05 449.48,337.95 C446.74,339.84 444.14,341.98 443.70,342.70 C443.26,343.41 442.27,344.00 441.49,344.00 C439.47,344.00 432.54,351.27 430.99,355.03 C429.39,358.89 430.77,363.61 434.86,368.28 C440.71,374.94 446.09,376.46 451.67,373.06 ZM 388.10 788.42 C385.69,787.66 383.52,786.85 383.28,786.62 C382.70,786.03 388.05,765.71 389.09,764.58 C390.35,763.22 400.42,765.75 403.56,768.23 C409.86,773.18 410.02,782.28 403.90,787.43 C400.40,790.38 395.35,790.70 388.10,788.42 ZM 661.68 760.35 C660.74,754.49 660.18,749.48 660.44,749.22 C661.03,748.63 678.00,760.10 678.00,761.08 C678.00,761.48 675.62,763.15 672.72,764.79 C669.81,766.43 666.83,768.50 666.09,769.39 C665.36,770.27 664.45,771.00 664.08,771.00 C663.70,771.00 662.63,766.21 661.68,760.35 ZM 206.50 614.16 C202.32,611.60 201.28,610.12 198.98,603.46 C197.41,598.89 197.25,597.46 198.24,596.84 C199.72,595.91 218.24,590.00 219.66,590.00 C220.99,590.00 224.00,599.85 224.00,604.20 C224.00,608.50 220.90,612.72 216.36,614.62 C212.00,616.45 210.10,616.36 206.50,614.16 ZM 181.64 542.36 C180.72,535.69 180.85,530.00 181.92,530.00 C183.42,530.00 200.43,536.12 201.34,536.99 C201.95,537.56 184.20,547.00 182.50,547.00 C182.38,547.00 181.99,544.91 181.64,542.36 ZM 197.20 482.38 C195.38,481.46 193.24,479.44 192.45,477.90 C190.93,474.97 190.48,464.36 191.78,462.32 C192.35,461.42 195.31,461.60 203.99,463.08 C210.29,464.16 215.78,465.38 216.21,465.81 C217.61,467.21 213.87,477.75 210.99,480.51 C207.46,483.89 201.70,484.67 197.20,482.38 Z" fill="rgb(254,254,254)"/>
</g>
</svg>